<?xml version="1.0" standalone="no"?>
<svg xmlns:xlink="http://www.w3.org/1999/xlink" id="wave" style="transform:rotate(0deg); transition: 0.3s" viewBox="0 0 1440 490" version="1.1" xmlns="http://www.w3.org/2000/svg"><defs><linearGradient id="sw-gradient-0" x1="0" x2="0" y1="1" y2="0"><stop stop-color="rgba(182, 37, 90, 1)" offset="0%"/><stop stop-color="rgba(0, 56, 91, 1)" offset="100%"/></linearGradient></defs><path style="transform:translate(0, 0px); opacity:1" fill="url(#sw-gradient-0)" d="M0,392L120,367.5C240,343,480,294,720,228.7C960,163,1200,82,1440,114.3C1680,147,1920,294,2160,294C2400,294,2640,147,2880,122.5C3120,98,3360,196,3600,245C3840,294,4080,294,4320,261.3C4560,229,4800,163,5040,171.5C5280,180,5520,261,5760,253.2C6000,245,6240,147,6480,106.2C6720,65,6960,82,7200,89.8C7440,98,7680,98,7920,122.5C8160,147,8400,196,8640,236.8C8880,278,9120,310,9360,318.5C9600,327,9840,310,10080,294C10320,278,10560,261,10800,228.7C11040,196,11280,147,11520,106.2C11760,65,12000,33,12240,73.5C12480,114,12720,229,12960,277.7C13200,327,13440,310,13680,253.2C13920,196,14160,98,14400,73.5C14640,49,14880,98,15120,122.5C15360,147,15600,147,15840,171.5C16080,196,16320,245,16560,236.8C16800,229,17040,163,17160,130.7L17280,98L17280,490L17160,490C17040,490,16800,490,16560,490C16320,490,16080,490,15840,490C15600,490,15360,490,15120,490C14880,490,14640,490,14400,490C14160,490,13920,490,13680,490C13440,490,13200,490,12960,490C12720,490,12480,490,12240,490C12000,490,11760,490,11520,490C11280,490,11040,490,10800,490C10560,490,10320,490,10080,490C9840,490,9600,490,9360,490C9120,490,8880,490,8640,490C8400,490,8160,490,7920,490C7680,490,7440,490,7200,490C6960,490,6720,490,6480,490C6240,490,6000,490,5760,490C5520,490,5280,490,5040,490C4800,490,4560,490,4320,490C4080,490,3840,490,3600,490C3360,490,3120,490,2880,490C2640,490,2400,490,2160,490C1920,490,1680,490,1440,490C1200,490,960,490,720,490C480,490,240,490,120,490L0,490Z"/><defs><linearGradient id="sw-gradient-1" x1="0" x2="0" y1="1" y2="0"><stop stop-color="rgba(0, 127, 153, 1)" offset="0%"/><stop stop-color="rgba(0, 56, 91, 1)" offset="100%"/></linearGradient></defs><path style="transform:translate(0, 50px); opacity:0.9" fill="url(#sw-gradient-1)" d="M0,0L120,16.3C240,33,480,65,720,130.7C960,196,1200,294,1440,285.8C1680,278,1920,163,2160,130.7C2400,98,2640,147,2880,196C3120,245,3360,294,3600,310.3C3840,327,4080,310,4320,294C4560,278,4800,261,5040,220.5C5280,180,5520,114,5760,81.7C6000,49,6240,49,6480,65.3C6720,82,6960,114,7200,138.8C7440,163,7680,180,7920,187.8C8160,196,8400,196,8640,179.7C8880,163,9120,131,9360,130.7C9600,131,9840,163,10080,196C10320,229,10560,261,10800,253.2C11040,245,11280,196,11520,163.3C11760,131,12000,114,12240,122.5C12480,131,12720,163,12960,220.5C13200,278,13440,359,13680,383.8C13920,408,14160,376,14400,375.7C14640,376,14880,408,15120,351.2C15360,294,15600,147,15840,89.8C16080,33,16320,65,16560,89.8C16800,114,17040,131,17160,138.8L17280,147L17280,490L17160,490C17040,490,16800,490,16560,490C16320,490,16080,490,15840,490C15600,490,15360,490,15120,490C14880,490,14640,490,14400,490C14160,490,13920,490,13680,490C13440,490,13200,490,12960,490C12720,490,12480,490,12240,490C12000,490,11760,490,11520,490C11280,490,11040,490,10800,490C10560,490,10320,490,10080,490C9840,490,9600,490,9360,490C9120,490,8880,490,8640,490C8400,490,8160,490,7920,490C7680,490,7440,490,7200,490C6960,490,6720,490,6480,490C6240,490,6000,490,5760,490C5520,490,5280,490,5040,490C4800,490,4560,490,4320,490C4080,490,3840,490,3600,490C3360,490,3120,490,2880,490C2640,490,2400,490,2160,490C1920,490,1680,490,1440,490C1200,490,960,490,720,490C480,490,240,490,120,490L0,490Z"/><defs><linearGradient id="sw-gradient-2" x1="0" x2="0" y1="1" y2="0"><stop stop-color="rgba(0, 127, 153, 1)" offset="0%"/><stop stop-color="rgba(182, 37, 90, 1)" offset="100%"/></linearGradient></defs><path style="transform:translate(0, 100px); opacity:0.8" fill="url(#sw-gradient-2)" d="M0,196L120,163.3C240,131,480,65,720,57.2C960,49,1200,98,1440,155.2C1680,212,1920,278,2160,277.7C2400,278,2640,212,2880,163.3C3120,114,3360,82,3600,98C3840,114,4080,180,4320,187.8C4560,196,4800,147,5040,147C5280,147,5520,196,5760,220.5C6000,245,6240,245,6480,228.7C6720,212,6960,180,7200,204.2C7440,229,7680,310,7920,359.3C8160,408,8400,425,8640,383.8C8880,343,9120,245,9360,204.2C9600,163,9840,180,10080,212.3C10320,245,10560,294,10800,269.5C11040,245,11280,147,11520,130.7C11760,114,12000,180,12240,196C12480,212,12720,180,12960,196C13200,212,13440,278,13680,253.2C13920,229,14160,114,14400,98C14640,82,14880,163,15120,171.5C15360,180,15600,114,15840,89.8C16080,65,16320,82,16560,106.2C16800,131,17040,163,17160,179.7L17280,196L17280,490L17160,490C17040,490,16800,490,16560,490C16320,490,16080,490,15840,490C15600,490,15360,490,15120,490C14880,490,14640,490,14400,490C14160,490,13920,490,13680,490C13440,490,13200,490,12960,490C12720,490,12480,490,12240,490C12000,490,11760,490,11520,490C11280,490,11040,490,10800,490C10560,490,10320,490,10080,490C9840,490,9600,490,9360,490C9120,490,8880,490,8640,490C8400,490,8160,490,7920,490C7680,490,7440,490,7200,490C6960,490,6720,490,6480,490C6240,490,6000,490,5760,490C5520,490,5280,490,5040,490C4800,490,4560,490,4320,490C4080,490,3840,490,3600,490C3360,490,3120,490,2880,490C2640,490,2400,490,2160,490C1920,490,1680,490,1440,490C1200,490,960,490,720,490C480,490,240,490,120,490L0,490Z"/><defs><linearGradient id="sw-gradient-3" x1="0" x2="0" y1="1" y2="0"><stop stop-color="rgba(0, 56, 91, 1)" offset="0%"/><stop stop-color="rgba(182, 37, 90, 1)" offset="100%"/></linearGradient></defs><path style="transform:translate(0, 150px); opacity:0.7" fill="url(#sw-gradient-3)" d="M0,147L120,187.8C240,229,480,310,720,359.3C960,408,1200,425,1440,408.3C1680,392,1920,343,2160,343C2400,343,2640,392,2880,383.8C3120,376,3360,310,3600,261.3C3840,212,4080,180,4320,163.3C4560,147,4800,147,5040,179.7C5280,212,5520,278,5760,253.2C6000,229,6240,114,6480,98C6720,82,6960,163,7200,212.3C7440,261,7680,278,7920,302.2C8160,327,8400,359,8640,375.7C8880,392,9120,392,9360,375.7C9600,359,9840,327,10080,302.2C10320,278,10560,261,10800,253.2C11040,245,11280,245,11520,245C11760,245,12000,245,12240,228.7C12480,212,12720,180,12960,138.8C13200,98,13440,49,13680,57.2C13920,65,14160,131,14400,171.5C14640,212,14880,229,15120,212.3C15360,196,15600,147,15840,163.3C16080,180,16320,261,16560,269.5C16800,278,17040,212,17160,179.7L17280,147L17280,490L17160,490C17040,490,16800,490,16560,490C16320,490,16080,490,15840,490C15600,490,15360,490,15120,490C14880,490,14640,490,14400,490C14160,490,13920,490,13680,490C13440,490,13200,490,12960,490C12720,490,12480,490,12240,490C12000,490,11760,490,11520,490C11280,490,11040,490,10800,490C10560,490,10320,490,10080,490C9840,490,9600,490,9360,490C9120,490,8880,490,8640,490C8400,490,8160,490,7920,490C7680,490,7440,490,7200,490C6960,490,6720,490,6480,490C6240,490,6000,490,5760,490C5520,490,5280,490,5040,490C4800,490,4560,490,4320,490C4080,490,3840,490,3600,490C3360,490,3120,490,2880,490C2640,490,2400,490,2160,490C1920,490,1680,490,1440,490C1200,490,960,490,720,490C480,490,240,490,120,490L0,490Z"/></svg>