<?xml version="1.0" standalone="no"?>
<svg xmlns:xlink="http://www.w3.org/1999/xlink" id="wave" style="transform:rotate(0deg); transition: 0.3s" viewBox="0 0 1440 490" version="1.1" xmlns="http://www.w3.org/2000/svg"><defs><linearGradient id="sw-gradient-0" x1="0" x2="0" y1="1" y2="0"><stop stop-color="rgba(182, 37, 90, 1)" offset="0%"/><stop stop-color="rgba(0, 56, 91, 1)" offset="100%"/></linearGradient></defs><path style="transform:translate(0, 0px); opacity:1" fill="url(#sw-gradient-0)" d="M0,49L40,57.2C80,65,160,82,240,122.5C320,163,400,229,480,236.8C560,245,640,196,720,212.3C800,229,880,310,960,310.3C1040,310,1120,229,1200,179.7C1280,131,1360,114,1440,130.7C1520,147,1600,196,1680,253.2C1760,310,1840,376,1920,367.5C2000,359,2080,278,2160,277.7C2240,278,2320,359,2400,400.2C2480,441,2560,441,2640,441C2720,441,2800,441,2880,383.8C2960,327,3040,212,3120,204.2C3200,196,3280,294,3360,351.2C3440,408,3520,425,3600,432.8C3680,441,3760,441,3840,408.3C3920,376,4000,310,4080,236.8C4160,163,4240,82,4320,89.8C4400,98,4480,196,4560,269.5C4640,343,4720,392,4800,351.2C4880,310,4960,180,5040,130.7C5120,82,5200,114,5280,163.3C5360,212,5440,278,5520,310.3C5600,343,5680,343,5720,343L5760,343L5760,490L5720,490C5680,490,5600,490,5520,490C5440,490,5360,490,5280,490C5200,490,5120,490,5040,490C4960,490,4880,490,4800,490C4720,490,4640,490,4560,490C4480,490,4400,490,4320,490C4240,490,4160,490,4080,490C4000,490,3920,490,3840,490C3760,490,3680,490,3600,490C3520,490,3440,490,3360,490C3280,490,3200,490,3120,490C3040,490,2960,490,2880,490C2800,490,2720,490,2640,490C2560,490,2480,490,2400,490C2320,490,2240,490,2160,490C2080,490,2000,490,1920,490C1840,490,1760,490,1680,490C1600,490,1520,490,1440,490C1360,490,1280,490,1200,490C1120,490,1040,490,960,490C880,490,800,490,720,490C640,490,560,490,480,490C400,490,320,490,240,490C160,490,80,490,40,490L0,490Z"/><defs><linearGradient id="sw-gradient-1" x1="0" x2="0" y1="1" y2="0"><stop stop-color="rgba(0, 127, 153, 1)" offset="0%"/><stop stop-color="rgba(0, 56, 91, 1)" offset="100%"/></linearGradient></defs><path style="transform:translate(0, 50px); opacity:0.9" fill="url(#sw-gradient-1)" d="M0,294L40,310.3C80,327,160,359,240,334.8C320,310,400,229,480,171.5C560,114,640,82,720,81.7C800,82,880,114,960,138.8C1040,163,1120,180,1200,228.7C1280,278,1360,359,1440,400.2C1520,441,1600,441,1680,424.7C1760,408,1840,376,1920,318.5C2000,261,2080,180,2160,122.5C2240,65,2320,33,2400,73.5C2480,114,2560,229,2640,236.8C2720,245,2800,147,2880,106.2C2960,65,3040,82,3120,147C3200,212,3280,327,3360,310.3C3440,294,3520,147,3600,81.7C3680,16,3760,33,3840,81.7C3920,131,4000,212,4080,245C4160,278,4240,261,4320,253.2C4400,245,4480,245,4560,220.5C4640,196,4720,147,4800,106.2C4880,65,4960,33,5040,32.7C5120,33,5200,65,5280,138.8C5360,212,5440,327,5520,334.8C5600,343,5680,245,5720,196L5760,147L5760,490L5720,490C5680,490,5600,490,5520,490C5440,490,5360,490,5280,490C5200,490,5120,490,5040,490C4960,490,4880,490,4800,490C4720,490,4640,490,4560,490C4480,490,4400,490,4320,490C4240,490,4160,490,4080,490C4000,490,3920,490,3840,490C3760,490,3680,490,3600,490C3520,490,3440,490,3360,490C3280,490,3200,490,3120,490C3040,490,2960,490,2880,490C2800,490,2720,490,2640,490C2560,490,2480,490,2400,490C2320,490,2240,490,2160,490C2080,490,2000,490,1920,490C1840,490,1760,490,1680,490C1600,490,1520,490,1440,490C1360,490,1280,490,1200,490C1120,490,1040,490,960,490C880,490,800,490,720,490C640,490,560,490,480,490C400,490,320,490,240,490C160,490,80,490,40,490L0,490Z"/><defs><linearGradient id="sw-gradient-2" x1="0" x2="0" y1="1" y2="0"><stop stop-color="rgba(0, 127, 153, 1)" offset="0%"/><stop stop-color="rgba(182, 37, 90, 1)" offset="100%"/></linearGradient></defs><path style="transform:translate(0, 100px); opacity:0.8" fill="url(#sw-gradient-2)" d="M0,98L40,81.7C80,65,160,33,240,81.7C320,131,400,261,480,277.7C560,294,640,196,720,171.5C800,147,880,196,960,187.8C1040,180,1120,114,1200,98C1280,82,1360,114,1440,163.3C1520,212,1600,278,1680,318.5C1760,359,1840,376,1920,318.5C2000,261,2080,131,2160,81.7C2240,33,2320,65,2400,98C2480,131,2560,163,2640,220.5C2720,278,2800,359,2880,367.5C2960,376,3040,310,3120,269.5C3200,229,3280,212,3360,228.7C3440,245,3520,294,3600,326.7C3680,359,3760,376,3840,383.8C3920,392,4000,392,4080,343C4160,294,4240,196,4320,196C4400,196,4480,294,4560,310.3C4640,327,4720,261,4800,196C4880,131,4960,65,5040,32.7C5120,0,5200,0,5280,73.5C5360,147,5440,294,5520,351.2C5600,408,5680,376,5720,359.3L5760,343L5760,490L5720,490C5680,490,5600,490,5520,490C5440,490,5360,490,5280,490C5200,490,5120,490,5040,490C4960,490,4880,490,4800,490C4720,490,4640,490,4560,490C4480,490,4400,490,4320,490C4240,490,4160,490,4080,490C4000,490,3920,490,3840,490C3760,490,3680,490,3600,490C3520,490,3440,490,3360,490C3280,490,3200,490,3120,490C3040,490,2960,490,2880,490C2800,490,2720,490,2640,490C2560,490,2480,490,2400,490C2320,490,2240,490,2160,490C2080,490,2000,490,1920,490C1840,490,1760,490,1680,490C1600,490,1520,490,1440,490C1360,490,1280,490,1200,490C1120,490,1040,490,960,490C880,490,800,490,720,490C640,490,560,490,480,490C400,490,320,490,240,490C160,490,80,490,40,490L0,490Z"/><defs><linearGradient id="sw-gradient-3" x1="0" x2="0" y1="1" y2="0"><stop stop-color="rgba(0, 56, 91, 1)" offset="0%"/><stop stop-color="rgba(182, 37, 90, 1)" offset="100%"/></linearGradient></defs><path style="transform:translate(0, 150px); opacity:0.7" fill="url(#sw-gradient-3)" d="M0,343L40,302.2C80,261,160,180,240,155.2C320,131,400,163,480,147C560,131,640,65,720,40.8C800,16,880,33,960,65.3C1040,98,1120,147,1200,187.8C1280,229,1360,261,1440,245C1520,229,1600,163,1680,147C1760,131,1840,163,1920,187.8C2000,212,2080,229,2160,220.5C2240,212,2320,180,2400,187.8C2480,196,2560,245,2640,261.3C2720,278,2800,261,2880,236.8C2960,212,3040,180,3120,147C3200,114,3280,82,3360,122.5C3440,163,3520,278,3600,277.7C3680,278,3760,163,3840,114.3C3920,65,4000,82,4080,114.3C4160,147,4240,196,4320,220.5C4400,245,4480,245,4560,204.2C4640,163,4720,82,4800,106.2C4880,131,4960,261,5040,334.8C5120,408,5200,425,5280,367.5C5360,310,5440,180,5520,179.7C5600,180,5680,310,5720,375.7L5760,441L5760,490L5720,490C5680,490,5600,490,5520,490C5440,490,5360,490,5280,490C5200,490,5120,490,5040,490C4960,490,4880,490,4800,490C4720,490,4640,490,4560,490C4480,490,4400,490,4320,490C4240,490,4160,490,4080,490C4000,490,3920,490,3840,490C3760,490,3680,490,3600,490C3520,490,3440,490,3360,490C3280,490,3200,490,3120,490C3040,490,2960,490,2880,490C2800,490,2720,490,2640,490C2560,490,2480,490,2400,490C2320,490,2240,490,2160,490C2080,490,2000,490,1920,490C1840,490,1760,490,1680,490C1600,490,1520,490,1440,490C1360,490,1280,490,1200,490C1120,490,1040,490,960,490C880,490,800,490,720,490C640,490,560,490,480,490C400,490,320,490,240,490C160,490,80,490,40,490L0,490Z"/></svg>